<svg width="16" height="18" viewBox="0 0 16 18" fill="none" xmlns="http://www.w3.org/2000/svg">
<path d="M7.70337 14.3987C8.73099 14.3991 9.74651 14.1781 10.6811 13.7506L13.3199 17.4912C13.5667 17.8417 13.9819 18.0338 14.4086 17.9951C14.8355 17.9564 15.2093 17.6927 15.3892 17.3036C15.5691 16.9146 15.5279 16.4588 15.2808 16.1084L12.6692 12.4038C14.2938 10.8506 15.0997 8.62722 14.8481 6.39322C14.5964 4.15916 13.3161 2.17118 11.3865 1.01845C9.45718 -0.134284 7.10025 -0.319246 5.01497 0.518573C2.92959 1.35639 1.35493 3.12047 0.758421 5.288C0.16164 7.45531 0.611376 9.77727 1.9741 11.5648C3.33681 13.3523 5.45609 14.4006 7.70362 14.3985L7.70337 14.3987ZM7.70337 2.4C8.97597 2.4 10.1963 2.90552 11.0961 3.80567C11.9957 4.70584 12.5012 5.92654 12.5012 7.19931C12.5012 8.47235 11.9957 9.69306 11.0961 10.5932C10.1962 11.4931 8.97592 11.9988 7.70337 11.9988C6.43099 11.9988 5.21071 11.4931 4.31091 10.5932C3.41105 9.693 2.90573 8.4723 2.90573 7.19931C2.90573 5.92649 3.41108 4.70578 4.31091 3.80567C5.21076 2.9055 6.43104 2.4 7.70337 2.4Z" fill="#AEAEAE"/>
</svg>
