<svg width="20" height="18" viewBox="0 0 20 18" fill="none" xmlns="http://www.w3.org/2000/svg">
<path fill-rule="evenodd" clip-rule="evenodd" d="M0.712192 0.5C0.523577 0.500471 0.342933 0.574541 0.209501 0.705731C0.0760531 0.83692 0.000796167 1.01472 2.53873e-07 1.20034C-0.000159174 1.38646 0.0747753 1.5652 0.208228 1.69716C0.341835 1.82914 0.522956 1.90352 0.712224 1.90399H1.32128C1.87263 1.90399 2.33434 2.28375 2.43605 2.81713L4.03425 11.1989C4.24948 12.3282 5.26081 13.1529 6.42835 13.1529H16.4283C17.597 13.1529 18.6038 12.3129 18.7959 11.1783L19.99 4.13075C20.0251 3.92675 19.967 3.71789 19.8315 3.55985C19.6958 3.40167 19.4964 3.31049 19.2862 3.31034H3.98389L3.84167 2.55773C3.61495 1.36825 2.55086 0.500105 1.32127 0.500105L0.712192 0.5ZM4.2525 4.71698H18.4426L17.3879 10.947C17.309 11.4131 16.9082 11.7463 16.4281 11.7463H6.42816C5.93902 11.7463 5.52702 11.4128 5.43694 10.9395L4.2525 4.71698ZM7.85692 13.856C6.68187 13.856 5.71326 14.8093 5.71326 15.9659C5.71326 17.1224 6.68183 18.0758 7.85692 18.0758C9.03198 18.0758 10.0006 17.1224 10.0006 15.9659C10.0006 14.8093 9.03202 13.856 7.85692 13.856ZM14.9993 13.856C13.8243 13.856 12.8557 14.8093 12.8557 15.9659C12.8557 17.1224 13.8242 18.0758 14.9993 18.0758C16.1744 18.0758 17.143 17.1224 17.143 15.9659C17.143 14.8093 16.1744 13.856 14.9993 13.856ZM7.85692 15.2628C8.25982 15.2628 8.5712 15.5693 8.5712 15.9659C8.5712 16.3624 8.25982 16.6689 7.85692 16.6689C7.45402 16.6689 7.14264 16.3624 7.14264 15.9659C7.14264 15.5693 7.45402 15.2628 7.85692 15.2628ZM14.9993 15.2628C15.4022 15.2628 15.7136 15.5693 15.7136 15.9659C15.7136 16.3624 15.4022 16.6689 14.9993 16.6689C14.5964 16.6689 14.285 16.3624 14.285 15.9659C14.285 15.5693 14.5964 15.2628 14.9993 15.2628Z" fill="white"/>
</svg>
